<svg xmlns="http://www.w3.org/2000/svg" viewBox="0 0 40 40" fill="none">
  <!-- Boot sole shape -->
  <ellipse cx="19" cy="31" rx="9" ry="5.5" fill="#D9A066" opacity="0.9"/>
  <!-- Boot body -->
  <path d="M11 31 Q10 22 12 16 Q13 12 16 11 L18 10 L20 10 L22 10 L24 11 Q27 12 28 16 Q30 22 29 31 Z" fill="#2C4A36"/>
  <!-- Boot toe cap -->
  <path d="M10.5 29 Q10 33 14 35 Q17 36.5 19 36.5 Q21 36.5 24 35 Q28 33 29.5 29 L28.5 29 Q27 32.5 24 33.5 Q21.5 35 19 35 Q16.5 35 14 33.5 Q11 32.5 10.5 29 Z" fill="#D9A066" opacity="0.75"/>
  <!-- Boot heel -->
  <rect x="13" y="29" width="14" height="3.5" rx="1.5" fill="#1a2c20"/>
  <!-- Lacing strip -->
  <path d="M16 11 L16 24 M24 11 L24 24" stroke="#D9A066" stroke-width="1" stroke-opacity="0.5" stroke-linecap="round"/>
  <!-- Laces -->
  <path d="M16 13 Q20 12 24 13" stroke="#D9A066" stroke-width="0.8" fill="none" stroke-linecap="round"/>
  <path d="M16 16 Q20 15 24 16" stroke="#D9A066" stroke-width="0.8" fill="none" stroke-linecap="round"/>
  <path d="M16 19 Q20 18 24 19" stroke="#D9A066" stroke-width="0.8" fill="none" stroke-linecap="round"/>
  <path d="M16 22 Q20 21 24 22" stroke="#D9A066" stroke-width="0.8" fill="none" stroke-linecap="round"/>
  <!-- Small trail dots above -->
  <circle cx="20" cy="6" r="1.5" fill="#D9A066" opacity="0.6"/>
  <circle cx="23" cy="3" r="1" fill="#D9A066" opacity="0.4"/>
  <circle cx="17" cy="3" r="1" fill="#D9A066" opacity="0.4"/>
</svg>
